<?xml version="1.0" encoding="UTF-8" standalone="no"?>
<!DOCTYPE svg PUBLIC "-//W3C//DTD SVG 1.1//EN"
 "http://www.w3.org/Graphics/SVG/1.1/DTD/svg11.dtd">
<!-- Generated by graphviz version 2.43.0 (0)
 -->
<!-- Title: _64 Pages: 1 -->
<svg width="762pt" height="814pt"
 viewBox="0.00 0.00 762.00 814.00" xmlns="http://www.w3.org/2000/svg" xmlns:xlink="http://www.w3.org/1999/xlink">
<g id="graph0" class="graph" transform="scale(1 1) rotate(0) translate(4 810)">
<title>_64</title>
<polygon fill="white" stroke="transparent" points="-4,4 -4,-810 758,-810 758,4 -4,4"/>
<g id="clust1" class="cluster">
<title>cluster64diagram</title>
<polygon fill="none" stroke="black" points="8,-8 8,-798 746,-798 746,-8 8,-8"/>
<text text-anchor="start" x="351.5" y="-779.8" font-family="Times,serif" font-weight="bold" font-size="14.00">Diagram</text>
<text text-anchor="start" x="314" y="-765.8" font-family="Times,serif" font-size="14.00">name=franka_c3_plant</text>
</g>
<g id="clust2" class="cluster">
<title>cluster64subsystems</title>
<polygon fill="none" stroke="white" points="16,-16 16,-746 738,-746 738,-16 16,-16"/>
</g>
<!-- s3 -->
<g id="node1" class="node">
<title>s3</title>
<polygon fill="none" stroke="black" points="32,-700 32,-734 520,-734 520,-700 32,-700"/>
<text text-anchor="start" x="229.5" y="-720.8" font-family="Times,serif" font-weight="bold" font-size="14.00">MultibodyPlant</text>
<text text-anchor="start" x="243" y="-706.8" font-family="Times,serif" font-size="14.00">name=plant</text>
<polygon fill="none" stroke="black" points="32,-679 32,-700 237,-700 237,-679 32,-679"/>
<text text-anchor="start" x="89.5" y="-685.8" font-family="Times,serif" font-size="14.00">geometry_query</text>
<polygon fill="none" stroke="black" points="237,-679 237,-700 520,-700 520,-679 237,-679"/>
<text text-anchor="start" x="336.5" y="-685.8" font-family="Times,serif" font-size="14.00">geometry_pose</text>
<polygon fill="none" stroke="black" points="32,-658 32,-679 237,-679 237,-658 32,-658"/>
<text text-anchor="start" x="109.5" y="-664.8" font-family="Times,serif" font-size="14.00">actuation</text>
<polygon fill="none" stroke="black" points="237,-658 237,-679 520,-679 520,-658 237,-658"/>
<text text-anchor="start" x="290.5" y="-664.8" font-family="Times,serif" font-size="14.00">deformable_body_configuration</text>
<polygon fill="none" stroke="black" points="32,-637 32,-658 237,-658 237,-637 32,-637"/>
<text text-anchor="start" x="62.5" y="-643.8" font-family="Times,serif" font-size="14.00">applied_generalized_force</text>
<polygon fill="none" stroke="black" points="237,-637 237,-658 520,-658 520,-637 237,-637"/>
<text text-anchor="start" x="366" y="-643.8" font-family="Times,serif" font-size="14.00">state</text>
<polygon fill="none" stroke="black" points="32,-616 32,-637 237,-637 237,-616 32,-616"/>
<text text-anchor="start" x="76" y="-622.8" font-family="Times,serif" font-size="14.00">applied_spatial_force</text>
<polygon fill="none" stroke="black" points="237,-616 237,-637 520,-637 520,-616 237,-616"/>
<text text-anchor="start" x="346.5" y="-622.8" font-family="Times,serif" font-size="14.00">body_poses</text>
<polygon fill="none" stroke="black" points="32,-595 32,-616 237,-616 237,-595 32,-595"/>
<text text-anchor="start" x="48.5" y="-601.8" font-family="Times,serif" font-size="14.00" fill="grey">WorldModelInstance_actuation</text>
<polygon fill="none" stroke="black" points="237,-595 237,-616 520,-616 520,-595 237,-595"/>
<text text-anchor="start" x="314.5" y="-601.8" font-family="Times,serif" font-size="14.00">body_spatial_velocities</text>
<polygon fill="none" stroke="black" points="32,-574 32,-595 237,-595 237,-574 32,-574"/>
<text text-anchor="start" x="38" y="-580.8" font-family="Times,serif" font-size="14.00" fill="grey">WorldModelInstance_desired_state</text>
<polygon fill="none" stroke="black" points="237,-574 237,-595 520,-595 520,-574 237,-574"/>
<text text-anchor="start" x="322.5" y="-581.8" font-family="Times,serif" text-decoration="line-through" font-size="14.00">spatial_velocities</text>
<text text-anchor="start" x="416.5" y="-581.8" font-family="Times,serif" font-size="14.00">🪦</text>
<polygon fill="none" stroke="black" points="32,-553 32,-574 237,-574 237,-553 32,-553"/>
<text text-anchor="start" x="45.5" y="-559.8" font-family="Times,serif" font-size="14.00" fill="grey">DefaultModelInstance_actuation</text>
<polygon fill="none" stroke="black" points="237,-553 237,-574 520,-574 520,-553 237,-553"/>
<text text-anchor="start" x="305" y="-559.8" font-family="Times,serif" font-size="14.00">body_spatial_accelerations</text>
<polygon fill="none" stroke="black" points="32,-532 32,-553 237,-553 237,-532 32,-532"/>
<text text-anchor="start" x="35" y="-538.8" font-family="Times,serif" font-size="14.00" fill="grey">DefaultModelInstance_desired_state</text>
<polygon fill="none" stroke="black" points="237,-532 237,-553 520,-553 520,-532 237,-532"/>
<text text-anchor="start" x="313" y="-539.8" font-family="Times,serif" text-decoration="line-through" font-size="14.00">spatial_accelerations</text>
<text text-anchor="start" x="426" y="-539.8" font-family="Times,serif" font-size="14.00">🪦</text>
<polygon fill="none" stroke="black" points="32,-511 32,-532 237,-532 237,-511 32,-511"/>
<text text-anchor="start" x="50" y="-517.8" font-family="Times,serif" font-size="14.00">end_effector_simple_actuation</text>
<polygon fill="none" stroke="black" points="237,-511 237,-532 520,-532 520,-511 237,-511"/>
<text text-anchor="start" x="311" y="-517.8" font-family="Times,serif" font-size="14.00">generalized_acceleration</text>
<polygon fill="none" stroke="black" points="32,-490 32,-511 237,-511 237,-490 32,-490"/>
<text text-anchor="start" x="39.5" y="-496.8" font-family="Times,serif" font-size="14.00" fill="grey">end_effector_simple_desired_state</text>
<polygon fill="none" stroke="black" points="237,-490 237,-511 520,-511 520,-490 237,-490"/>
<text text-anchor="start" x="342" y="-496.8" font-family="Times,serif" font-size="14.00">net_actuation</text>
<polygon fill="none" stroke="black" points="32,-469 32,-490 237,-490 237,-469 32,-469"/>
<text text-anchor="start" x="66.5" y="-475.8" font-family="Times,serif" font-size="14.00" fill="grey">push_anything_actuation</text>
<polygon fill="none" stroke="black" points="237,-469 237,-490 520,-490 520,-469 237,-469"/>
<text text-anchor="start" x="336.5" y="-475.8" font-family="Times,serif" font-size="14.00">reaction_forces</text>
<polygon fill="none" stroke="black" points="32,-448 32,-469 237,-469 237,-448 32,-448"/>
<text text-anchor="start" x="56" y="-454.8" font-family="Times,serif" font-size="14.00" fill="grey">push_anything_desired_state</text>
<polygon fill="none" stroke="black" points="237,-448 237,-469 520,-469 520,-448 237,-448"/>
<text text-anchor="start" x="337.5" y="-454.8" font-family="Times,serif" font-size="14.00">contact_results</text>
<polygon fill="none" stroke="black" points="32,-427 32,-448 237,-448 237,-427 32,-427"/>
<text text-anchor="start" x="87" y="-433.8" font-family="Times,serif" font-size="14.00" fill="grey">ground_actuation</text>
<polygon fill="none" stroke="black" points="237,-427 237,-448 520,-448 520,-427 237,-427"/>
<text text-anchor="start" x="304.5" y="-433.8" font-family="Times,serif" font-size="14.00" fill="grey">WorldModelInstance_state</text>
<polygon fill="none" stroke="black" points="32,-406 32,-427 237,-427 237,-406 32,-406"/>
<text text-anchor="start" x="76.5" y="-412.8" font-family="Times,serif" font-size="14.00" fill="grey">ground_desired_state</text>
<polygon fill="none" stroke="black" points="237,-406 237,-427 520,-427 520,-406 237,-406"/>
<text text-anchor="start" x="250" y="-412.8" font-family="Times,serif" font-size="14.00" fill="grey">WorldModelInstance_generalized_acceleration</text>
<polyline fill="none" stroke="grey" points="32,-406 32,-28 237,-28 "/>
<polygon fill="none" stroke="black" points="237,-385 237,-406 520,-406 520,-385 237,-385"/>
<text text-anchor="start" x="243" y="-391.8" font-family="Times,serif" font-size="14.00" fill="grey">WorldModelInstance_generalized_contact_forces</text>
<polygon fill="none" stroke="black" points="237,-364 237,-385 520,-385 520,-364 237,-364"/>
<text text-anchor="start" x="280.5" y="-370.8" font-family="Times,serif" font-size="14.00" fill="grey">WorldModelInstance_net_actuation</text>
<polygon fill="none" stroke="black" points="237,-343 237,-364 520,-364 520,-343 237,-343"/>
<text text-anchor="start" x="301.5" y="-349.8" font-family="Times,serif" font-size="14.00" fill="grey">DefaultModelInstance_state</text>
<polygon fill="none" stroke="black" points="237,-322 237,-343 520,-343 520,-322 237,-322"/>
<text text-anchor="start" x="247" y="-328.8" font-family="Times,serif" font-size="14.00" fill="grey">DefaultModelInstance_generalized_acceleration</text>
<polygon fill="none" stroke="black" points="237,-301 237,-322 520,-322 520,-301 237,-301"/>
<text text-anchor="start" x="240" y="-307.8" font-family="Times,serif" font-size="14.00" fill="grey">DefaultModelInstance_generalized_contact_forces</text>
<polygon fill="none" stroke="black" points="237,-280 237,-301 520,-301 520,-280 237,-280"/>
<text text-anchor="start" x="277.5" y="-286.8" font-family="Times,serif" font-size="14.00" fill="grey">DefaultModelInstance_net_actuation</text>
<polygon fill="none" stroke="black" points="237,-259 237,-280 520,-280 520,-259 237,-259"/>
<text text-anchor="start" x="306.5" y="-265.8" font-family="Times,serif" font-size="14.00">end_effector_simple_state</text>
<polygon fill="none" stroke="black" points="237,-238 237,-259 520,-259 520,-238 237,-238"/>
<text text-anchor="start" x="252" y="-244.8" font-family="Times,serif" font-size="14.00">end_effector_simple_generalized_acceleration</text>
<polygon fill="none" stroke="black" points="237,-217 237,-238 520,-238 520,-217 237,-217"/>
<text text-anchor="start" x="245" y="-223.8" font-family="Times,serif" font-size="14.00">end_effector_simple_generalized_contact_forces</text>
<polygon fill="none" stroke="black" points="237,-196 237,-217 520,-217 520,-196 237,-196"/>
<text text-anchor="start" x="282.5" y="-202.8" font-family="Times,serif" font-size="14.00">end_effector_simple_net_actuation</text>
<polygon fill="none" stroke="black" points="237,-175 237,-196 520,-196 520,-175 237,-175"/>
<text text-anchor="start" x="322.5" y="-181.8" font-family="Times,serif" font-size="14.00">push_anything_state</text>
<polygon fill="none" stroke="black" points="237,-154 237,-175 520,-175 520,-154 237,-154"/>
<text text-anchor="start" x="268" y="-160.8" font-family="Times,serif" font-size="14.00">push_anything_generalized_acceleration</text>
<polygon fill="none" stroke="black" points="237,-133 237,-154 520,-154 520,-133 237,-133"/>
<text text-anchor="start" x="261" y="-139.8" font-family="Times,serif" font-size="14.00">push_anything_generalized_contact_forces</text>
<polygon fill="none" stroke="black" points="237,-112 237,-133 520,-133 520,-112 237,-112"/>
<text text-anchor="start" x="298.5" y="-118.8" font-family="Times,serif" font-size="14.00" fill="grey">push_anything_net_actuation</text>
<polygon fill="none" stroke="black" points="237,-91 237,-112 520,-112 520,-91 237,-91"/>
<text text-anchor="start" x="343.5" y="-97.8" font-family="Times,serif" font-size="14.00" fill="grey">ground_state</text>
<polygon fill="none" stroke="black" points="237,-70 237,-91 520,-91 520,-70 237,-70"/>
<text text-anchor="start" x="288.5" y="-76.8" font-family="Times,serif" font-size="14.00" fill="grey">ground_generalized_acceleration</text>
<polygon fill="none" stroke="black" points="237,-49 237,-70 520,-70 520,-49 237,-49"/>
<text text-anchor="start" x="282" y="-55.8" font-family="Times,serif" font-size="14.00" fill="grey">ground_generalized_contact_forces</text>
<polygon fill="none" stroke="black" points="237,-28 237,-49 520,-49 520,-28 237,-28"/>
<text text-anchor="start" x="319.5" y="-34.8" font-family="Times,serif" font-size="14.00" fill="grey">ground_net_actuation</text>
</g>
<!-- s4 -->
<g id="node2" class="node">
<title>s4</title>
<polygon fill="none" stroke="black" points="572,-700 572,-734 722,-734 722,-700 572,-700"/>
<text text-anchor="start" x="610.5" y="-720.8" font-family="Times,serif" font-weight="bold" font-size="14.00">SceneGraph</text>
<text text-anchor="start" x="594" y="-706.8" font-family="Times,serif" font-size="14.00">name=scene_graph</text>
<polygon fill="none" stroke="black" points="572,-679 572,-700 685,-700 685,-679 572,-679"/>
<text text-anchor="start" x="599" y="-685.8" font-family="Times,serif" font-size="14.00">plant_pose</text>
<polygon fill="none" stroke="black" points="685,-658 685,-700 722,-700 722,-658 685,-658"/>
<text text-anchor="start" x="688" y="-675.3" font-family="Times,serif" font-size="14.00">query</text>
<polygon fill="none" stroke="black" points="572,-658 572,-679 685,-679 685,-658 572,-658"/>
<text text-anchor="start" x="575" y="-664.8" font-family="Times,serif" font-size="14.00">plant_configuration</text>
</g>
<!-- s3&#45;&gt;s4 -->
<g id="edge1" class="edge">
<title>s3:e&#45;&gt;s4:w</title>
<path fill="none" stroke="black" d="M521,-690C539.41,-690 546.37,-689.31 560.85,-689.08"/>
<polygon fill="black" stroke="black" points="561.03,-692.58 571,-689 560.97,-685.58 561.03,-692.58"/>
</g>
<!-- s3&#45;&gt;s4 -->
<g id="edge2" class="edge">
<title>s3:e&#45;&gt;s4:w</title>
<path fill="none" stroke="black" d="M521,-669C539.41,-669 546.37,-668.31 560.85,-668.08"/>
<polygon fill="black" stroke="black" points="561.03,-671.58 571,-668 560.97,-664.58 561.03,-671.58"/>
</g>
<!-- s4&#45;&gt;s3 -->
<g id="edge3" class="edge">
<title>s4:e&#45;&gt;s3:w</title>
<path fill="none" stroke="black" d="M723,-679C734.12,-679 730.02,-661.7 722,-654 671.36,-605.35 622.62,-615.34 564,-654 530.09,-676.36 561.91,-715.64 528,-738 481.99,-768.34 71.37,-776.56 32,-738 19.85,-726.1 12.88,-702.69 21.35,-693.66"/>
<polygon fill="black" stroke="black" points="22.89,-696.82 31,-690 20.41,-690.28 22.89,-696.82"/>
</g>
</g>
</svg>
