<?xml version="1.0" encoding="UTF-8" standalone="no"?>
<!DOCTYPE svg PUBLIC "-//W3C//DTD SVG 1.1//EN"
 "http://www.w3.org/Graphics/SVG/1.1/DTD/svg11.dtd">
<!-- Generated by graphviz version 2.43.0 (0)
 -->
<!-- Title: _17 Pages: 1 -->
<svg width="2734pt" height="504pt"
 viewBox="0.00 0.00 2733.95 504.00" xmlns="http://www.w3.org/2000/svg" xmlns:xlink="http://www.w3.org/1999/xlink">
<g id="graph0" class="graph" transform="scale(1 1) rotate(0) translate(4 500)">
<title>_17</title>
<polygon fill="white" stroke="transparent" points="-4,4 -4,-500 2729.95,-500 2729.95,4 -4,4"/>
<g id="clust1" class="cluster">
<title>cluster17diagram</title>
<polygon fill="none" stroke="black" points="8,-8 8,-488 2717.95,-488 2717.95,-8 8,-8"/>
<text text-anchor="start" x="1337.47" y="-469.8" font-family="Times,serif" font-weight="bold" font-size="14.00">Diagram</text>
<text text-anchor="start" x="1284.97" y="-455.8" font-family="Times,serif" font-size="14.00">name=franka_osc_controller</text>
</g>
<g id="clust2" class="cluster">
<title>cluster17subsystems</title>
<polygon fill="none" stroke="white" points="16,-16 16,-436 2709.95,-436 2709.95,-16 16,-16"/>
</g>
<!-- s2 -->
<g id="node1" class="node">
<title>s2</title>
<polygon fill="none" stroke="black" points="917.37,-321 917.37,-342 1064.37,-342 1064.37,-321 917.37,-321"/>
<text text-anchor="start" x="926.37" y="-328.8" font-family="Times,serif" font-weight="bold" font-size="14.00">RobotOutputReceiver</text>
<polygon fill="none" stroke="black" points="917.37,-300 917.37,-321 1025.37,-321 1025.37,-300 917.37,-300"/>
<text text-anchor="start" x="920.37" y="-306.8" font-family="Times,serif" font-size="14.00">lcmt_robot_output</text>
<polygon fill="none" stroke="black" points="1025.37,-300 1025.37,-321 1064.37,-321 1064.37,-300 1025.37,-300"/>
<text text-anchor="start" x="1028.37" y="-306.8" font-family="Times,serif" font-size="14.00">x, u, t</text>
</g>
<!-- s11 -->
<g id="node12" class="node">
<title>s11</title>
<polygon fill="none" stroke="black" points="1234.87,-325 1234.87,-346 1457.87,-346 1457.87,-325 1234.87,-325"/>
<text text-anchor="start" x="1248.87" y="-332.8" font-family="Times,serif" font-weight="bold" font-size="14.00">EndEffectorTrajectoryGenerator</text>
<polygon fill="none" stroke="black" points="1234.87,-304 1234.87,-325 1324.87,-325 1324.87,-304 1234.87,-304"/>
<text text-anchor="start" x="1276.37" y="-310.8" font-family="Times,serif" font-size="14.00">x</text>
<polygon fill="none" stroke="black" points="1324.87,-262 1324.87,-325 1457.87,-325 1457.87,-262 1324.87,-262"/>
<text text-anchor="start" x="1327.87" y="-289.8" font-family="Times,serif" font-size="14.00">end_effector_trajectory</text>
<polygon fill="none" stroke="black" points="1234.87,-283 1234.87,-304 1324.87,-304 1324.87,-283 1234.87,-283"/>
<text text-anchor="start" x="1253.87" y="-289.8" font-family="Times,serif" font-size="14.00">trajectory</text>
<polygon fill="none" stroke="black" points="1234.87,-262 1234.87,-283 1324.87,-283 1324.87,-262 1234.87,-262"/>
<text text-anchor="start" x="1237.87" y="-268.8" font-family="Times,serif" font-size="14.00">lcmt_radio_out</text>
</g>
<!-- s2&#45;&gt;s11 -->
<g id="edge14" class="edge">
<title>s2:e&#45;&gt;s11:w</title>
<path fill="none" stroke="black" d="M1065.37,-310C1136.78,-310 1157.08,-314.54 1223.7,-314.97"/>
<polygon fill="black" stroke="black" points="1223.86,-318.47 1233.87,-315 1223.88,-311.47 1223.86,-318.47"/>
</g>
<!-- s12 -->
<g id="node13" class="node">
<title>s12</title>
<polygon fill="none" stroke="black" points="1230.87,-215 1230.87,-236 1460.87,-236 1460.87,-215 1230.87,-215"/>
<text text-anchor="start" x="1245.37" y="-222.8" font-family="Times,serif" font-weight="bold" font-size="14.00">EndEffectorOrientationGenerator</text>
<polygon fill="none" stroke="black" points="1230.87,-194 1230.87,-215 1320.87,-215 1320.87,-194 1230.87,-194"/>
<text text-anchor="start" x="1272.37" y="-200.8" font-family="Times,serif" font-size="14.00">x</text>
<polygon fill="none" stroke="black" points="1320.87,-152 1320.87,-215 1460.87,-215 1460.87,-152 1320.87,-152"/>
<text text-anchor="start" x="1323.87" y="-179.8" font-family="Times,serif" font-size="14.00">end_effector_orientation</text>
<polygon fill="none" stroke="black" points="1230.87,-173 1230.87,-194 1320.87,-194 1320.87,-173 1230.87,-173"/>
<text text-anchor="start" x="1249.87" y="-179.8" font-family="Times,serif" font-size="14.00">trajectory</text>
<polygon fill="none" stroke="black" points="1230.87,-152 1230.87,-173 1320.87,-173 1320.87,-152 1230.87,-152"/>
<text text-anchor="start" x="1233.87" y="-158.8" font-family="Times,serif" font-size="14.00">lcmt_radio_out</text>
</g>
<!-- s2&#45;&gt;s12 -->
<g id="edge18" class="edge">
<title>s2:e&#45;&gt;s12:w</title>
<path fill="none" stroke="black" d="M1065.37,-310C1114.23,-310 1132.19,-314.06 1172.87,-287 1206.65,-264.53 1189.22,-214.63 1219.87,-206.21"/>
<polygon fill="black" stroke="black" points="1220.37,-209.68 1229.87,-205 1219.52,-202.73 1220.37,-209.68"/>
</g>
<!-- s13 -->
<g id="node14" class="node">
<title>s13</title>
<polygon fill="none" stroke="black" points="1216.87,-105 1216.87,-126 1474.87,-126 1474.87,-105 1216.87,-105"/>
<text text-anchor="start" x="1231.87" y="-112.8" font-family="Times,serif" font-weight="bold" font-size="14.00">EndEffectorForceTrajectoryGenerator</text>
<polygon fill="none" stroke="black" points="1216.87,-84 1216.87,-105 1306.87,-105 1306.87,-84 1216.87,-84"/>
<text text-anchor="start" x="1258.37" y="-90.8" font-family="Times,serif" font-size="14.00">x</text>
<polygon fill="none" stroke="black" points="1306.87,-42 1306.87,-105 1474.87,-105 1474.87,-42 1306.87,-42"/>
<text text-anchor="start" x="1309.87" y="-69.8" font-family="Times,serif" font-size="14.00">end_effector_force_trajectory</text>
<polygon fill="none" stroke="black" points="1216.87,-63 1216.87,-84 1306.87,-84 1306.87,-63 1216.87,-63"/>
<text text-anchor="start" x="1235.87" y="-69.8" font-family="Times,serif" font-size="14.00">trajectory</text>
<polygon fill="none" stroke="black" points="1216.87,-42 1216.87,-63 1306.87,-63 1306.87,-42 1216.87,-42"/>
<text text-anchor="start" x="1219.87" y="-48.8" font-family="Times,serif" font-size="14.00">lcmt_radio_out</text>
</g>
<!-- s2&#45;&gt;s13 -->
<g id="edge21" class="edge">
<title>s2:e&#45;&gt;s13:w</title>
<path fill="none" stroke="black" d="M1065.37,-310C1114.23,-310 1138.16,-321.38 1172.87,-287 1232.33,-228.11 1137.27,-106.08 1205.65,-95.71"/>
<polygon fill="black" stroke="black" points="1206.14,-99.18 1215.87,-95 1205.66,-92.2 1206.14,-99.18"/>
</g>
<!-- s15 -->
<g id="node16" class="node">
<title>s15</title>
<polygon fill="none" stroke="black" points="1526.87,-246 1526.87,-280 1800.87,-280 1800.87,-246 1526.87,-246"/>
<text text-anchor="start" x="1588.87" y="-266.8" font-family="Times,serif" font-weight="bold" font-size="14.00">OperationalSpaceControl</text>
<text text-anchor="start" x="1631.37" y="-252.8" font-family="Times,serif" font-size="14.00">name=OSC</text>
<polygon fill="none" stroke="black" points="1526.87,-225 1526.87,-246 1704.87,-246 1704.87,-225 1526.87,-225"/>
<text text-anchor="start" x="1599.37" y="-231.8" font-family="Times,serif" font-size="14.00">x, u, t</text>
<polygon fill="none" stroke="black" points="1704.87,-225 1704.87,-246 1800.87,-246 1800.87,-225 1704.87,-225"/>
<text text-anchor="start" x="1743.37" y="-231.8" font-family="Times,serif" font-size="14.00">u, t</text>
<polygon fill="none" stroke="black" points="1526.87,-204 1526.87,-225 1704.87,-225 1704.87,-204 1526.87,-204"/>
<text text-anchor="start" x="1562.87" y="-210.8" font-family="Times,serif" font-size="14.00">end_effector_target</text>
<polygon fill="none" stroke="black" points="1704.87,-204 1704.87,-225 1800.87,-225 1800.87,-204 1704.87,-204"/>
<text text-anchor="start" x="1707.87" y="-210.8" font-family="Times,serif" font-size="14.00">lcmt_osc_debug</text>
<polygon fill="none" stroke="black" points="1526.87,-183 1526.87,-204 1704.87,-204 1704.87,-183 1526.87,-183"/>
<text text-anchor="start" x="1529.87" y="-189.8" font-family="Times,serif" font-size="14.00">end_effector_orientation_target</text>
<polygon fill="none" stroke="black" points="1704.87,-183 1704.87,-204 1800.87,-204 1800.87,-183 1704.87,-183"/>
<text text-anchor="start" x="1715.37" y="-189.8" font-family="Times,serif" font-size="14.00">failure_signal</text>
<polygon fill="none" stroke="black" points="1526.87,-162 1526.87,-183 1704.87,-183 1704.87,-162 1526.87,-162"/>
<text text-anchor="start" x="1564.37" y="-168.8" font-family="Times,serif" font-size="14.00">end_effector_force</text>
<polyline fill="none" stroke="grey" points="1704.87,-162 1800.87,-162 1800.87,-183 "/>
</g>
<!-- s2&#45;&gt;s15 -->
<g id="edge9" class="edge">
<title>s2:e&#45;&gt;s15:w</title>
<path fill="none" stroke="black" d="M1065.37,-310C1132.77,-310 1142.39,-347.96 1208.87,-359 1329.01,-378.95 1383.57,-429.48 1482.87,-359 1526.96,-327.71 1475.73,-247.64 1515.86,-237.14"/>
<polygon fill="black" stroke="black" points="1516.33,-240.61 1525.87,-236 1515.54,-233.65 1516.33,-240.61"/>
</g>
<!-- s3 -->
<g id="node2" class="node">
<title>s3</title>
<polygon fill="none" stroke="black" points="371.37,-228 371.37,-290 764.37,-290 764.37,-228 371.37,-228"/>
<text text-anchor="start" x="501.37" y="-276.8" font-family="Times,serif" font-weight="bold" font-size="14.00">LcmSubscriberSystem</text>
<text text-anchor="start" x="374.37" y="-262.8" font-family="Times,serif" font-size="14.00">name=LcmSubscriberSystem(TRACKING_TRAJECTORY_ACTOR)</text>
<text text-anchor="start" x="434.87" y="-248.8" font-family="Times,serif" font-size="14.00">channel=TRACKING_TRAJECTORY_ACTOR</text>
<text text-anchor="start" x="469.87" y="-234.8" font-family="Times,serif" font-size="14.00">type=lcmt_timestamped_saved_traj</text>
<polyline fill="none" stroke="grey" points="371.37,-228 371.37,-207 560.37,-207 "/>
<polygon fill="none" stroke="black" points="560.37,-207 560.37,-228 764.37,-228 764.37,-207 560.37,-207"/>
<text text-anchor="start" x="655.37" y="-213.8" font-family="Times,serif" font-size="14.00">y0</text>
</g>
<!-- s4 -->
<g id="node4" class="node">
<title>s4</title>
<polygon fill="none" stroke="black" points="823.37,-389 823.37,-423 1157.37,-423 1157.37,-389 823.37,-389"/>
<text text-anchor="start" x="920.37" y="-409.8" font-family="Times,serif" font-weight="bold" font-size="14.00">LcmTrajectoryReceiver</text>
<text text-anchor="start" x="892.87" y="-395.8" font-family="Times,serif" font-size="14.00">name=end_effector_position_target</text>
<polygon fill="none" stroke="black" points="823.37,-368 823.37,-389 994.37,-389 994.37,-368 823.37,-368"/>
<text text-anchor="start" x="826.37" y="-374.8" font-family="Times,serif" font-size="14.00">lcmt_timestamped_saved_traj</text>
<polygon fill="none" stroke="black" points="994.37,-368 994.37,-389 1157.37,-389 1157.37,-368 994.37,-368"/>
<text text-anchor="start" x="997.37" y="-374.8" font-family="Times,serif" font-size="14.00">end_effector_position_target</text>
</g>
<!-- s3&#45;&gt;s4 -->
<g id="edge24" class="edge">
<title>s3:e&#45;&gt;s4:w</title>
<path fill="none" stroke="black" d="M765.37,-217C837.57,-217 755.32,-362.66 812.44,-376.89"/>
<polygon fill="black" stroke="black" points="812.05,-380.36 822.37,-378 812.83,-373.41 812.05,-380.36"/>
</g>
<!-- s5 -->
<g id="node5" class="node">
<title>s5</title>
<polygon fill="none" stroke="black" points="831.37,-49 831.37,-83 1149.37,-83 1149.37,-49 831.37,-49"/>
<text text-anchor="start" x="920.37" y="-69.8" font-family="Times,serif" font-weight="bold" font-size="14.00">LcmTrajectoryReceiver</text>
<text text-anchor="start" x="900.87" y="-55.8" font-family="Times,serif" font-size="14.00">name=end_effector_force_target</text>
<polygon fill="none" stroke="black" points="831.37,-28 831.37,-49 1002.37,-49 1002.37,-28 831.37,-28"/>
<text text-anchor="start" x="834.37" y="-34.8" font-family="Times,serif" font-size="14.00">lcmt_timestamped_saved_traj</text>
<polygon fill="none" stroke="black" points="1002.37,-28 1002.37,-49 1149.37,-49 1149.37,-28 1002.37,-28"/>
<text text-anchor="start" x="1005.37" y="-34.8" font-family="Times,serif" font-size="14.00">end_effector_force_target</text>
</g>
<!-- s3&#45;&gt;s5 -->
<g id="edge25" class="edge">
<title>s3:e&#45;&gt;s5:w</title>
<path fill="none" stroke="black" d="M765.37,-217C846.21,-217 754.72,-53.72 820.08,-39.05"/>
<polygon fill="black" stroke="black" points="820.78,-42.5 830.37,-38 820.07,-35.53 820.78,-42.5"/>
</g>
<!-- s6 -->
<g id="node6" class="node">
<title>s6</title>
<polygon fill="none" stroke="black" points="816.37,-239 816.37,-273 1165.37,-273 1165.37,-239 816.37,-239"/>
<text text-anchor="start" x="886.87" y="-259.8" font-family="Times,serif" font-weight="bold" font-size="14.00">LcmOrientationTrajectoryReceiver</text>
<text text-anchor="start" x="885.87" y="-245.8" font-family="Times,serif" font-size="14.00">name=end_effector_orientation_target</text>
<polygon fill="none" stroke="black" points="816.37,-218 816.37,-239 987.37,-239 987.37,-218 816.37,-218"/>
<text text-anchor="start" x="819.37" y="-224.8" font-family="Times,serif" font-size="14.00">lcmt_timestamped_saved_traj</text>
<polygon fill="none" stroke="black" points="987.37,-218 987.37,-239 1165.37,-239 1165.37,-218 987.37,-218"/>
<text text-anchor="start" x="990.37" y="-224.8" font-family="Times,serif" font-size="14.00">end_effector_orientation_target</text>
</g>
<!-- s3&#45;&gt;s6 -->
<g id="edge26" class="edge">
<title>s3:e&#45;&gt;s6:w</title>
<path fill="none" stroke="black" d="M765.37,-217C784.22,-217 790.54,-224.54 805.07,-227.14"/>
<polygon fill="black" stroke="black" points="805.12,-230.65 815.37,-228 805.7,-223.68 805.12,-230.65"/>
</g>
<!-- drakelcminterface140728215465856out -->
<g id="node3" class="node">
<title>drakelcminterface140728215465856out</title>
<ellipse fill="none" stroke="black" cx="175.44" cy="-194" rx="151.37" ry="18"/>
<text text-anchor="middle" x="175.44" y="-190.3" font-family="Times,serif" font-size="14.00">drakelcminterface140728215465856out</text>
</g>
<!-- drakelcminterface140728215465856out&#45;&gt;s3 -->
<g id="edge1" class="edge">
<title>drakelcminterface140728215465856out&#45;&gt;s3:w</title>
<path fill="none" stroke="#800080" stroke-dasharray="5,2" d="M212.99,-211.55C247.61,-226.64 301.74,-246.35 352.73,-248.76"/>
<polygon fill="#800080" stroke="#800080" points="352.79,-252.26 362.87,-249 352.96,-245.26 352.79,-252.26"/>
</g>
<!-- s14 -->
<g id="node15" class="node">
<title>s14</title>
<polygon fill="none" stroke="black" points="831.37,-130 831.37,-192 1150.37,-192 1150.37,-130 831.37,-130"/>
<text text-anchor="start" x="924.37" y="-178.8" font-family="Times,serif" font-weight="bold" font-size="14.00">LcmSubscriberSystem</text>
<text text-anchor="start" x="834.37" y="-164.8" font-family="Times,serif" font-size="14.00">name=LcmSubscriberSystem(SAMPLING_C3_RADIO)</text>
<text text-anchor="start" x="894.37" y="-150.8" font-family="Times,serif" font-size="14.00">channel=SAMPLING_C3_RADIO</text>
<text text-anchor="start" x="933.37" y="-136.8" font-family="Times,serif" font-size="14.00">type=lcmt_radio_out</text>
<polyline fill="none" stroke="grey" points="831.37,-130 831.37,-109 983.37,-109 "/>
<polygon fill="none" stroke="black" points="983.37,-109 983.37,-130 1150.37,-130 1150.37,-109 983.37,-109"/>
<text text-anchor="start" x="1059.87" y="-115.8" font-family="Times,serif" font-size="14.00">y0</text>
</g>
<!-- drakelcminterface140728215465856out&#45;&gt;s14 -->
<g id="edge4" class="edge">
<title>drakelcminterface140728215465856out&#45;&gt;s14:w</title>
<path fill="none" stroke="#800080" stroke-dasharray="5,2" d="M288.43,-181.99C414.62,-169.5 626.29,-151.66 811.2,-151.02"/>
<polygon fill="#800080" stroke="#800080" points="811.38,-154.52 821.37,-151 811.37,-147.52 811.38,-154.52"/>
</g>
<!-- s4&#45;&gt;s11 -->
<g id="edge15" class="edge">
<title>s4:e&#45;&gt;s11:w</title>
<path fill="none" stroke="black" d="M1158.37,-378C1205.15,-378 1186.72,-305.15 1223.82,-294.34"/>
<polygon fill="black" stroke="black" points="1224.42,-297.79 1233.87,-293 1223.5,-290.85 1224.42,-297.79"/>
</g>
<!-- s5&#45;&gt;s13 -->
<g id="edge22" class="edge">
<title>s5:e&#45;&gt;s13:w</title>
<path fill="none" stroke="black" d="M1150.37,-38C1179.64,-38 1182.55,-65.52 1205.85,-71.75"/>
<polygon fill="black" stroke="black" points="1205.52,-75.24 1215.87,-73 1206.38,-68.29 1205.52,-75.24"/>
</g>
<!-- s6&#45;&gt;s12 -->
<g id="edge19" class="edge">
<title>s6:e&#45;&gt;s12:w</title>
<path fill="none" stroke="black" d="M1166.37,-228C1197.18,-228 1196.04,-192.31 1219.86,-184.5"/>
<polygon fill="black" stroke="black" points="1220.5,-187.94 1229.87,-183 1219.47,-181.02 1220.5,-187.94"/>
</g>
<!-- s7 -->
<g id="node7" class="node">
<title>s7</title>
<polygon fill="none" stroke="black" points="2070.37,-356 2070.37,-418 2343.37,-418 2343.37,-356 2070.37,-356"/>
<text text-anchor="start" x="2144.37" y="-404.8" font-family="Times,serif" font-weight="bold" font-size="14.00">LcmPublisherSystem</text>
<text text-anchor="start" x="2073.37" y="-390.8" font-family="Times,serif" font-size="14.00">name=LcmPublisherSystem(FRANKA_INPUT)</text>
<text text-anchor="start" x="2130.37" y="-376.8" font-family="Times,serif" font-size="14.00">channel=FRANKA_INPUT</text>
<text text-anchor="start" x="2143.37" y="-362.8" font-family="Times,serif" font-size="14.00">type=lcmt_robot_input</text>
<polygon fill="none" stroke="black" points="2070.37,-335 2070.37,-356 2244.37,-356 2244.37,-335 2070.37,-335"/>
<text text-anchor="start" x="2119.87" y="-341.8" font-family="Times,serif" font-size="14.00">lcm_message</text>
<polyline fill="none" stroke="grey" points="2244.37,-335 2343.37,-335 2343.37,-356 "/>
</g>
<!-- drakelcminterface140728215465856in -->
<g id="node8" class="node">
<title>drakelcminterface140728215465856in</title>
<ellipse fill="none" stroke="black" cx="2554.41" cy="-268" rx="147.57" ry="18"/>
<text text-anchor="middle" x="2554.41" y="-264.3" font-family="Times,serif" font-size="14.00">drakelcminterface140728215465856in</text>
</g>
<!-- s7&#45;&gt;drakelcminterface140728215465856in -->
<g id="edge2" class="edge">
<title>s7:e&#45;&gt;drakelcminterface140728215465856in</title>
<path fill="none" stroke="#800080" stroke-dasharray="5,2" d="M2352.37,-377C2422.5,-377 2491.57,-325.1 2527.65,-292.93"/>
<polygon fill="#800080" stroke="#800080" points="2530.22,-295.32 2535.25,-286 2525.51,-290.15 2530.22,-295.32"/>
</g>
<!-- s8 -->
<g id="node9" class="node">
<title>s8</title>
<polygon fill="none" stroke="black" points="2077.37,-247 2077.37,-309 2336.37,-309 2336.37,-247 2077.37,-247"/>
<text text-anchor="start" x="2144.37" y="-295.8" font-family="Times,serif" font-weight="bold" font-size="14.00">LcmPublisherSystem</text>
<text text-anchor="start" x="2080.37" y="-281.8" font-family="Times,serif" font-size="14.00">name=LcmPublisherSystem(OSC_FRANKA)</text>
<text text-anchor="start" x="2137.37" y="-267.8" font-family="Times,serif" font-size="14.00">channel=OSC_FRANKA</text>
<text text-anchor="start" x="2143.37" y="-253.8" font-family="Times,serif" font-size="14.00">type=lcmt_robot_input</text>
<polygon fill="none" stroke="black" points="2077.37,-226 2077.37,-247 2244.37,-247 2244.37,-226 2077.37,-226"/>
<text text-anchor="start" x="2123.37" y="-232.8" font-family="Times,serif" font-size="14.00">lcm_message</text>
<polyline fill="none" stroke="grey" points="2244.37,-226 2336.37,-226 2336.37,-247 "/>
</g>
<!-- s8&#45;&gt;drakelcminterface140728215465856in -->
<g id="edge3" class="edge">
<title>s8:e&#45;&gt;drakelcminterface140728215465856in</title>
<path fill="none" stroke="#800080" stroke-dasharray="5,2" d="M2345.37,-268C2361.98,-268 2379.33,-268 2396.62,-268"/>
<polygon fill="#800080" stroke="#800080" points="2396.79,-271.5 2406.79,-268 2396.79,-264.5 2396.79,-271.5"/>
</g>
<!-- s9 -->
<g id="node10" class="node">
<title>s9</title>
<polygon fill="none" stroke="black" points="1853.37,-335 1853.37,-356 1998.37,-356 1998.37,-335 1853.37,-335"/>
<text text-anchor="start" x="1856.37" y="-342.8" font-family="Times,serif" font-weight="bold" font-size="14.00">RobotCommandSender</text>
<polygon fill="none" stroke="black" points="1853.37,-314 1853.37,-335 1887.37,-335 1887.37,-314 1853.37,-314"/>
<text text-anchor="start" x="1860.87" y="-320.8" font-family="Times,serif" font-size="14.00">u, t</text>
<polygon fill="none" stroke="black" points="1887.37,-314 1887.37,-335 1998.37,-335 1998.37,-314 1887.37,-314"/>
<text text-anchor="start" x="1895.37" y="-320.8" font-family="Times,serif" font-size="14.00">lcmt_robot_input</text>
</g>
<!-- s9&#45;&gt;s7 -->
<g id="edge7" class="edge">
<title>s9:e&#45;&gt;s7:w</title>
<path fill="none" stroke="black" d="M1999.37,-324C2028.17,-324 2035.4,-340.51 2059.31,-344.25"/>
<polygon fill="black" stroke="black" points="2059.14,-347.75 2069.37,-345 2059.66,-340.77 2059.14,-347.75"/>
</g>
<!-- s10 -->
<g id="node11" class="node">
<title>s10</title>
<polygon fill="none" stroke="black" points="1853.37,-247 1853.37,-268 1998.37,-268 1998.37,-247 1853.37,-247"/>
<text text-anchor="start" x="1856.37" y="-254.8" font-family="Times,serif" font-weight="bold" font-size="14.00">RobotCommandSender</text>
<polygon fill="none" stroke="black" points="1853.37,-226 1853.37,-247 1887.37,-247 1887.37,-226 1853.37,-226"/>
<text text-anchor="start" x="1860.87" y="-232.8" font-family="Times,serif" font-size="14.00">u, t</text>
<polygon fill="none" stroke="black" points="1887.37,-226 1887.37,-247 1998.37,-247 1998.37,-226 1887.37,-226"/>
<text text-anchor="start" x="1895.37" y="-232.8" font-family="Times,serif" font-size="14.00">lcmt_robot_input</text>
</g>
<!-- s10&#45;&gt;s8 -->
<g id="edge8" class="edge">
<title>s10:e&#45;&gt;s8:w</title>
<path fill="none" stroke="black" d="M1999.37,-236C2029.99,-236 2040.06,-236 2066.34,-236"/>
<polygon fill="black" stroke="black" points="2066.37,-239.5 2076.37,-236 2066.37,-232.5 2066.37,-239.5"/>
</g>
<!-- s11&#45;&gt;s15 -->
<g id="edge10" class="edge">
<title>s11:e&#45;&gt;s15:w</title>
<path fill="none" stroke="black" d="M1458.87,-293C1501.13,-293 1483.47,-226.43 1515.9,-215.51"/>
<polygon fill="black" stroke="black" points="1516.51,-218.96 1525.87,-214 1515.46,-212.03 1516.51,-218.96"/>
</g>
<!-- s12&#45;&gt;s15 -->
<g id="edge11" class="edge">
<title>s12:e&#45;&gt;s15:w</title>
<path fill="none" stroke="black" d="M1461.87,-183C1486.95,-183 1495.06,-190.59 1515.76,-192.54"/>
<polygon fill="black" stroke="black" points="1515.73,-196.05 1525.87,-193 1516.04,-189.05 1515.73,-196.05"/>
</g>
<!-- s13&#45;&gt;s15 -->
<g id="edge12" class="edge">
<title>s13:e&#45;&gt;s15:w</title>
<path fill="none" stroke="black" d="M1475.87,-73C1521.32,-73 1483.57,-157.14 1516.02,-170.28"/>
<polygon fill="black" stroke="black" points="1515.42,-173.73 1525.87,-172 1516.62,-166.83 1515.42,-173.73"/>
</g>
<!-- s14&#45;&gt;s11 -->
<g id="edge16" class="edge">
<title>s14:e&#45;&gt;s11:w</title>
<path fill="none" stroke="black" d="M1151.37,-119C1224.86,-119 1163.29,-257.42 1223.59,-270.94"/>
<polygon fill="black" stroke="black" points="1223.57,-274.46 1233.87,-272 1224.28,-267.49 1223.57,-274.46"/>
</g>
<!-- s14&#45;&gt;s12 -->
<g id="edge20" class="edge">
<title>s14:e&#45;&gt;s12:w</title>
<path fill="none" stroke="black" d="M1151.37,-119C1187.42,-119 1189.93,-154.32 1219.69,-160.94"/>
<polygon fill="black" stroke="black" points="1219.56,-164.44 1229.87,-162 1220.29,-157.48 1219.56,-164.44"/>
</g>
<!-- s14&#45;&gt;s13 -->
<g id="edge23" class="edge">
<title>s14:e&#45;&gt;s13:w</title>
<path fill="none" stroke="black" d="M1151.37,-119C1188.83,-119 1177.42,-63.97 1205.72,-53.66"/>
<polygon fill="black" stroke="black" points="1206.57,-57.06 1215.87,-52 1205.44,-50.16 1206.57,-57.06"/>
</g>
<!-- s15&#45;&gt;s9 -->
<g id="edge6" class="edge">
<title>s15:e&#45;&gt;s9:w</title>
<path fill="none" stroke="black" d="M1801.87,-236C1843.09,-236 1813.47,-309.52 1842.52,-322.16"/>
<polygon fill="black" stroke="black" points="1841.9,-325.61 1852.37,-324 1843.18,-318.73 1841.9,-325.61"/>
</g>
<!-- s15&#45;&gt;s10 -->
<g id="edge17" class="edge">
<title>s15:e&#45;&gt;s10:w</title>
<path fill="none" stroke="black" d="M1801.87,-236C1820.46,-236 1827.5,-236 1842.12,-236"/>
<polygon fill="black" stroke="black" points="1842.37,-239.5 1852.37,-236 1842.37,-232.5 1842.37,-239.5"/>
</g>
<!-- s16 -->
<g id="node17" class="node">
<title>s16</title>
<polygon fill="none" stroke="black" points="2050.37,-138 2050.37,-200 2363.37,-200 2363.37,-138 2050.37,-138"/>
<text text-anchor="start" x="2144.37" y="-186.8" font-family="Times,serif" font-weight="bold" font-size="14.00">LcmPublisherSystem</text>
<text text-anchor="start" x="2053.37" y="-172.8" font-family="Times,serif" font-size="14.00">name=LcmPublisherSystem(OSC_DEBUG_FRANKA)</text>
<text text-anchor="start" x="2110.37" y="-158.8" font-family="Times,serif" font-size="14.00">channel=OSC_DEBUG_FRANKA</text>
<text text-anchor="start" x="2145.37" y="-144.8" font-family="Times,serif" font-size="14.00">type=lcmt_osc_output</text>
<polygon fill="none" stroke="black" points="2050.37,-117 2050.37,-138 2244.37,-138 2244.37,-117 2050.37,-117"/>
<text text-anchor="start" x="2109.87" y="-123.8" font-family="Times,serif" font-size="14.00">lcm_message</text>
<polyline fill="none" stroke="grey" points="2244.37,-117 2363.37,-117 2363.37,-138 "/>
</g>
<!-- s15&#45;&gt;s16 -->
<g id="edge13" class="edge">
<title>s15:e&#45;&gt;s16:w</title>
<path fill="none" stroke="black" d="M1801.87,-214C1914.94,-214 1931.82,-132.19 2039.06,-127.23"/>
<polygon fill="black" stroke="black" points="2039.46,-130.73 2049.37,-127 2039.3,-123.73 2039.46,-130.73"/>
</g>
<!-- s16&#45;&gt;drakelcminterface140728215465856in -->
<g id="edge5" class="edge">
<title>s16:e&#45;&gt;drakelcminterface140728215465856in</title>
<path fill="none" stroke="#800080" stroke-dasharray="5,2" d="M2370.87,-159C2435.8,-159 2497.68,-210.46 2530.05,-242.66"/>
<polygon fill="#800080" stroke="#800080" points="2527.75,-245.32 2537.25,-250 2532.74,-240.41 2527.75,-245.32"/>
</g>
</g>
</svg>
